<?xml version="1.0" encoding="iso-8859-1"?>
<!-- Generator: Adobe Illustrator 19.0.0, SVG Export Plug-In . SVG Version: 6.00 Build 0)  -->
<svg version="1.1" id="Capa_1" xmlns="http://www.w3.org/2000/svg" xmlns:xlink="http://www.w3.org/1999/xlink" x="0px" y="0px"
	 viewBox="0 0 512 512" style="enable-background:new 0 0 512 512;" xml:space="preserve">
<path style="fill:#E61E14;" d="M452,136c0,24.814-20.186,45-45,45h-60c-24.814,0-45-20.186-45-45s20.186-45,45-45h60
	C431.814,91,452,111.186,452,136z"/>
<path style="fill:#CAE8F9;" d="M508.4,241.899l-13.502-39.6C484.402,171.7,455.9,151,423.802,151H392l-30,46.5V256
	c0,24.899,20.098,45,45,45h87.898L512,271v-5.4C512,257.5,510.799,249.399,508.4,241.899z"/>
<path style="fill:#57555C;" d="M375.184,287.816c-5.859-5.859-5.859-15.352,0-21.211l38.086-38.086
	c5.859-5.859,15.352-5.859,21.211,0s5.859,15.352,0,21.211l-38.086,38.086C390.535,293.676,381.043,293.676,375.184,287.816z"/>
<path style="fill:#FD3018;" d="M512,271H407c-8.401,0-15-6.601-15-15V151h-75c-8.401,0-15,6.599-15,15v192.599L332,391h135
	c24.902,0,45-20.101,45-45V271z"/>
<path style="fill:#FE6245;" d="M287,61H45C20.098,61,0,81.099,0,106v240c0,24.899,20.098,45,45,45h287V106
	C332,80.499,309.8,61,287,61z"/>
<path style="fill:#787780;" d="M121,451c-33.076,0-60-26.909-60-60s26.924-60,60-60s60,26.909,60,60S154.076,451,121,451z"/>
<path style="fill:#57555C;" d="M392,451c-33.076,0-60-26.909-60-60s26.924-60,60-60s60,26.909,60,60S425.076,451,392,451z"/>
<path style="fill:#FD4E26;" d="M332,391h-76V61h31c22.8,0,45,19.499,45,45V391z"/>
<path style="fill:#57555C;" d="M512,436c0,8.399-6.599,15-15,15H15c-8.401,0-15-6.601-15-15c0-8.401,6.599-15,15-15h482
	C505.401,421,512,427.599,512,436z"/>
<g>
	<path style="fill:#B7E0F6;" d="M121,361c-16.553,0-30,13.462-30,30s13.447,30,30,30s30-13.462,30-30S137.553,361,121,361z"/>
	<path style="fill:#B7E0F6;" d="M392,361c-16.553,0-30,13.462-30,30s13.447,30,30,30s30-13.462,30-30S408.553,361,392,361z"/>
</g>
<path style="fill:#3C3A41;" d="M512,436c0,8.399-6.599,15-15,15H256v-30h241C505.401,421,512,427.599,512,436z"/>
<path style="fill:#CAE8F9;" d="M271,166c0,13.2-5.698,25.199-15,33.3c-7.8,7.2-18.3,11.7-30,11.7c-9.302,0-17.703-2.701-24.902-7.5
	l-52.2,39.3C150.099,247,151,251.199,151,256c0,24.899-20.098,45-45,45c-8.401,0-15-6.601-15-15c0-8.401,6.599-15,15-15
	s15-6.601,15-15c0-8.401-6.599-15-15-15s-15,6.599-15,15c0,8.399-6.599,15-15,15s-15-6.601-15-15c0-24.901,20.098-45,45-45
	c9.302,0,17.703,2.699,24.902,7.5l52.2-39.3C181.901,175,181,170.799,181,166c0-24.901,20.098-45,45-45c8.401,0,15,6.599,15,15
	c0,8.399-6.599,15-15,15s-15,6.599-15,15c0,8.399,6.599,15,15,15s15-6.601,15-15c0-8.401,6.599-15,15-15S271,157.599,271,166z"/>
<g>
</g>
<g>
</g>
<g>
</g>
<g>
</g>
<g>
</g>
<g>
</g>
<g>
</g>
<g>
</g>
<g>
</g>
<g>
</g>
<g>
</g>
<g>
</g>
<g>
</g>
<g>
</g>
<g>
</g>
</svg>
