<svg id="Capa_1" enable-background="new 0 0 512.515 512.515" height="512" viewBox="0 0 512.515 512.515" width="512" xmlns="http://www.w3.org/2000/svg"><g><path d="m447.278 318.12-172.07-232.11h-33.21l-178.76 218.97v167.76l61.141 24.11h297.314l26.585-24.11z" fill="#f9f7f8"/><path d="m447.278 318.12-150.68-203.256-59.893-22.371-140.416 172v24.755h-20.209l-12.842 15.732v159.001h104.241l-39.393-15.534v-138.574c0-10.733 3.526-21.168 10.037-29.701l51.779-67.866 23.878-30.711c.791-1.018 2.418-.622 2.642.648.736 4.173 2.336 11.099 5.226 14.287 4.312 4.758 10.467 7.487 16.886 7.488h.003c6.138 0 12.107-2.552 16.377-7.002l25.355-26.429c2.753-2.869 7.416-2.609 9.832.548l31.216 40.789 112.906 147.979c2.62 3.434 6.692 5.449 11.012 5.449h2.348z" fill="#efedef"/><g><path d="m483.998 339.414-123.24-161.524-57.382-72.101h-38.759v-33.999h-25.869l-88.42 106.66-122.811 160.964c-1.855 2.432-.121 5.936 2.938 5.936h32.783l110.82-145.25 72.96-93.84h18.62l71.58 93.53 111.06 145.56h32.783c3.059 0 4.793-3.504 2.937-5.936z" fill="#ee6161"/></g><path d="m448.048 436.5h-384.81v36.24l75.936 16.115h297.18l11.924-16.115z" fill="#efedef"/><path d="m295.973 491.739h-81.43v-78.076c0-22.486 18.229-40.715 40.715-40.715 22.486 0 40.715 18.229 40.715 40.715z" fill="#fccd7f"/><path d="m255.258 423.907c0-18.363 12.159-33.882 28.864-38.957-7.374-7.412-17.582-12.003-28.864-12.003-22.486 0-40.715 18.229-40.715 40.715v78.076h40.715z" fill="#fbc56d"/><path d="m128.138 436.5h-64.9v36.24l75.936 16.115h64.9l-75.936-16.115z" fill="#e5e1e5"/><path d="m458.613 472.739h-405.711c-4.983 0-9.023 4.04-9.023 9.023v17.755c0 3.012 2.442 5.454 5.454 5.454h412.848c3.012 0 5.454-2.442 5.454-5.454v-17.755c.001-4.983-4.039-9.023-9.022-9.023z" fill="#c9bfc8"/><path d="m108.78 499.516v-17.755c0-4.983 4.04-9.023 9.023-9.023h-64.9c-4.983 0-9.023 4.04-9.023 9.023v17.755c0 3.012 2.442 5.454 5.454 5.454h64.9c-3.012.001-5.454-2.441-5.454-5.454z" fill="#aa9ea9"/><path d="m324.994 301.436c0-9.582 7.768-17.349 17.349-17.349 9.582 0 17.349 7.768 17.349 17.349v50.719h-34.699" fill="#6bd9e7"/><path d="m150.822 352.155h34.699v-50.719c0-9.582-7.768-17.349-17.349-17.349-9.582 0-17.349 7.768-17.349 17.349v50.719z" fill="#6bd9e7"/><g id="XMLID_155_"><g><path d="m265.308 243.404h-36.631l-6.63 5.447v27.12c0 4.09 3.31 7.39 7.39 7.39h26.27l10.778-14.653z" fill="#6bd9e7"/><path d="m255.708 214.33h-26.27c-4.08 0-7.39 3.31-7.39 7.4v27.12h33.66l6.953-7.653v-15.153z" fill="#a6e7f0"/></g><path d="m285.021 239.137h-23.685l-5.629 9.713v34.51h25.37c4.08 0 7.39-3.3 7.39-7.39v-27.12z" fill="#a6e7f0"/></g><path d="m288.468 221.73v27.12h-32.76v-34.52h25.37c4.08 0 7.39 3.31 7.39 7.4z" fill="#dcf5f8"/><path d="m303.375 105.789h-38.758v-33.999h-25.869l-35.782 43.163h19.229l-2.616 26.598 27.439-35.291h18.62l33.876 44.265 21.57-22.485z" fill="#e94444"/><path d="m318.208 94.953h-32.672c-2.638 0-4.458-2.644-3.516-5.108l28.818-75.395c1.281-3.353-1.194-6.949-4.784-6.949h-67.414l-13.489 10.119-25.447 70.508s29.158-3.181 30.2-2.117c1.043 1.064 25.506 4.768 25.506 4.768l-6.403 75.015 12.56-4.603 58.765-61.255c1.796-1.873.469-4.983-2.124-4.983z" fill="#fedf30"/><path d="m252.151 79.158h-32.021c-1.988 0-3.404-1.93-2.808-3.826l21.318-67.832h-16.653c-2.237 0-4.215 1.452-4.885 3.586l-25.155 80.041c-.596 1.897.82 3.826 2.808 3.826h49.503l-8.462 86.06c-.254 2.579 2.892 4.026 4.686 2.157l21.086-21.98 6.355-64.633c.916-9.321-6.407-17.399-15.772-17.399z" fill="#fed402"/><g><path d="m494.99 340.842-160.631-210.528c-2.513-3.293-7.219-3.925-10.512-1.413s-3.926 7.219-1.413 10.512l151.438 198.479h-21.384l-140.549-184.208c-2.513-3.293-7.22-3.925-10.512-1.413-3.293 2.512-3.926 7.219-1.413 10.512l141.262 185.143v81.123h-48.265c-4.142 0-7.5 3.358-7.5 7.5s3.358 7.5 7.5 7.5h48.265v21.236h-137.304v-21.236h57.076c4.142 0 7.5-3.358 7.5-7.5s-3.358-7.5-7.5-7.5h-57.076v-15.341c0-26.586-21.629-48.215-48.215-48.215s-48.215 21.629-48.215 48.215v15.34h-136.303v-19.011c0-4.142-3.358-7.5-7.5-7.5s-7.5 3.358-7.5 7.5v55.248h-2.837c-9.11 0-16.522 7.412-16.522 16.522v23.209c0 4.142 3.358 7.5 7.5 7.5h423.756c4.142 0 7.5-3.358 7.5-7.5v-23.209c0-9.11-7.412-16.522-16.522-16.522h-2.837v-112.394h32.751c2.852 0 5.457-1.618 6.722-4.174 1.264-2.556.97-5.608-.76-7.875zm-272.447 72.865c0-18.315 14.9-33.215 33.215-33.215s33.215 14.9 33.215 33.215v51.577h-66.43zm-151.304 30.34h136.304v21.236h-136.304zm389.396 37.759v15.709h-408.755v-15.709c0-.839.683-1.522 1.522-1.522h405.711c.839 0 1.522.683 1.522 1.522z"/><path d="m56.239 378.074c0 4.142 3.358 7.5 7.5 7.5s7.5-3.358 7.5-7.5v-30.148l142.814-187.177c2.513-3.293 1.88-8-1.413-10.512-3.292-2.513-8-1.88-10.512 1.413l-142.1 186.241h-21.384l159.113-208.538c2.513-3.293 1.88-8-1.413-10.512-3.292-2.514-8-1.881-10.512 1.413l-168.307 220.588c-1.73 2.267-2.024 5.319-.76 7.875 1.265 2.556 3.87 4.174 6.722 4.174h32.751v25.183z"/><path d="m342.844 276.631c-13.702 0-24.85 11.147-24.85 24.849v43.426c-3.309.781-5.775 3.745-5.775 7.293 0 4.142 3.358 7.5 7.5 7.5h47.143c4.142 0 7.5-3.358 7.5-7.5 0-3.861-2.918-7.038-6.669-7.451v-43.268c.001-13.701-11.147-24.849-24.849-24.849zm-9.85 68.068v-43.219c0-5.431 4.418-9.849 9.85-9.849s9.85 4.418 9.85 9.849v43.219z"/><path d="m168.671 276.631c-13.702 0-24.85 11.147-24.85 24.849v43.267c-3.751.414-6.669 3.591-6.669 7.451 0 4.142 3.358 7.5 7.5 7.5h47.143c4.142 0 7.5-3.358 7.5-7.5 0-3.547-2.466-6.512-5.775-7.293v-43.425c.001-13.701-11.147-24.849-24.849-24.849zm-9.849 68.068v-43.219c0-5.431 4.418-9.849 9.85-9.849s9.85 4.418 9.85 9.849v43.219z"/><path d="m229.939 206.704c-8.211 0-14.892 6.681-14.892 14.892v54.246c0 8.211 6.681 14.892 14.892 14.892h51.638c8.211 0 14.892-6.681 14.892-14.892v-54.246c0-8.211-6.681-14.892-14.892-14.892zm51.53 34.515h-17.758v-19.515h17.758zm-32.758-19.515v19.515h-18.664v-19.515zm-18.664 34.515h18.664v19.515h-18.664zm33.664 19.515v-19.515h17.758v19.515z"/><path d="m194.755 102.453h41.229l-7.652 77.825c-.427 4.335 1.945 8.473 5.903 10.294 1.37.631 2.827.937 4.271.937 2.729 0 5.415-1.091 7.387-3.147l79.851-83.235c2.902-3.025 3.715-7.471 2.07-11.326-1.644-3.856-5.415-6.347-9.607-6.347h-27.244l5.147-13.466c1.479-3.869-.459-8.205-4.328-9.684s-8.205.458-9.684 4.328l-9.038 23.644c-.881 2.306-.572 4.897.828 6.93 1.399 2.033 3.709 3.248 6.178 3.248h27.455l-62.915 65.581 7.113-72.347c.208-2.106-.485-4.203-1.907-5.771-1.421-1.568-3.44-2.463-5.557-2.463h-43.295l22.773-72.454h78.865l-8.282 21.669c-1.479 3.869.459 8.205 4.328 9.684 3.869 1.477 8.204-.459 9.684-4.328l9.516-24.896c1.483-3.881.963-8.241-1.393-11.663-2.356-3.423-6.242-5.466-10.397-5.466h-84.068c-5.542 0-10.38 3.552-12.04 8.837l-25.155 80.04c-.993 3.16-.417 6.641 1.543 9.311s5.109 4.265 8.421 4.265z"/><path d="m399.356 163.442 16.715-15.527.474 9.975c.202 4.257 2.779 7.903 6.725 9.513 1.348.55 2.747.818 4.129.818 2.668 0 5.275-1 7.333-2.911l29.296-27.214c3.035-2.819 3.209-7.565.391-10.6-2.819-3.035-7.564-3.21-10.6-.391l-22.717 21.103-.474-9.975c-.202-4.258-2.78-7.904-6.727-9.514-3.947-1.611-8.339-.809-11.461 2.093l-23.294 21.638c-3.035 2.819-3.209 7.565-.391 10.6 2.821 3.036 7.565 3.212 10.601.392z"/><path d="m77.69 165.312c2.057 1.911 4.664 2.911 7.333 2.911 1.382 0 2.782-.269 4.129-.818 3.947-1.61 6.524-5.255 6.726-9.513l.474-9.975 16.715 15.527c3.036 2.82 7.781 2.644 10.6-.391s2.644-7.78-.391-10.6l-23.293-21.637c-3.123-2.902-7.514-3.706-11.461-2.094-3.947 1.61-6.524 5.255-6.727 9.514l-.474 9.975-22.717-21.103c-3.035-2.819-7.781-2.643-10.6.391-2.819 3.035-2.644 7.78.391 10.6z"/></g></g></svg>