<svg id="Capa_1" enable-background="new 0 0 497 497" height="512" viewBox="0 0 497 497" width="512" xmlns="http://www.w3.org/2000/svg"><g><path d="m218.5 82.5h30v105h-30z" fill="#85453d"/><path d="m376 15h90v240h-90z" fill="#c27749"/><path d="m286 255v-240h150v45l-30 75 30 75v45z" fill="#e18f4e"/><path d="m406 210-30-74.999 30-75.001h30v150z" fill="#85453d"/><path d="m316 60h90v150h-90z" fill="#a45e43"/><path d="m376 300 60 197h30v-197z" fill="#c27749"/><path d="m286 300h150v197h-150z" fill="#e18f4e"/><path d="m466 240h-30l30 90h30v-60c0-16.568-13.431-30-30-30z" fill="#e18f4e"/><path d="m436 240h-150c-16.569 0-30 13.431-30 30v60h210v-60c0-16.568-13.431-30-30-30z" fill="#ffa754"/><path d="m406 300-15-15 15-15h30v30z" fill="#85453d"/><path d="m316 270h90v30h-90z" fill="#a45e43"/><circle cx="406" cy="90" fill="#60312c" r="7.5"/><circle cx="376" cy="90" fill="#85453d" r="7.5"/><circle cx="346" cy="90" fill="#85453d" r="7.5"/><circle cx="406" cy="120" fill="#60312c" r="7.5"/><circle cx="376" cy="120" fill="#85453d" r="7.5"/><circle cx="346" cy="120" fill="#85453d" r="7.5"/><circle cx="406" cy="150" fill="#60312c" r="7.5"/><circle cx="376" cy="150" fill="#85453d" r="7.5"/><circle cx="346" cy="150" fill="#85453d" r="7.5"/><circle cx="406" cy="180" fill="#60312c" r="7.5"/><circle cx="376" cy="180" fill="#85453d" r="7.5"/><circle cx="346" cy="180" fill="#85453d" r="7.5"/><path d="m466 0h-30v30h30c8.284 0 15-6.716 15-15s-6.716-15-15-15z" fill="#e18f4e"/><path d="m436 0h-150c-8.284 0-15 6.716-15 15s6.716 15 15 15h150c8.284 0 15-6.716 15-15s-6.716-15-15-15z" fill="#ffa754"/><circle cx="233.5" cy="82.5" fill="#60312c" r="22.5"/><circle cx="233.5" cy="187.5" fill="#60312c" r="22.5"/><path d="m220.349 468.494-35.226-177.697c-2.688-13.558-9.34-26.014-19.114-35.788l-29.999.001-60.01 149.99 105 92h60c0-13.303-8.662-24.576-20.651-28.506z" fill="#85453d"/><path d="m168.61 468.49-21.13-177.69c-1.62-13.56-5.61-26.02-11.47-35.79l-60.01-.01c-9.78 9.78-16.44 22.23-19.12 35.8l-35.23 177.69c-11.99 3.93-20.65 15.21-20.65 28.51h180c0-13.3-5.2-24.58-12.39-28.51z" fill="#a45e43"/><path d="m181 185.039c0-11.05-8.95-20-20-20h-30l5 90h30c8.28 0 15-6.71 15-15z" fill="#a8e5ff"/><path d="m151 185.025c0-11.046-8.954-20-20-20h-50.13c-11.046 0-19.87 8.954-19.87 20v55.004c0 8.284 6.586 15 14.87 15h60.13c8.284 0 15-6.716 15-15z" fill="#dbf4ff"/><circle cx="121" cy="195" fill="#a8e5ff" r="7.5"/><circle cx="121" cy="225" fill="#a8e5ff" r="7.5"/><path d="m148.5 15c0-8.284-6.716-15-15-15-5.22 0-9.813 2.67-12.5 6.715-2.686-4.045-7.28-6.715-12.5-6.715-8.284 0-15 6.716-15 15-8.284 0-15 6.716-15 15s6.716 15 15 15h55c8.284 0 15-6.716 15-15s-6.716-15-15-15z" fill="#85453d"/><path d="m121 45v90c24.853 0 45-20.147 45-45z" fill="#ffa754"/><path d="m121 45-45 45c0 24.853 20.147 45 45 45 8.284 0 15-20.147 15-45s-6.716-45-15-45z" fill="#ffcb63"/><path d="m121 45c-24.853 0-45 20.147-45 45 24.853 0 45-20.147 45-45z" fill="#85453d"/><path d="m166 90c0-24.853-20.147-45-45-45 0 24.853 20.147 45 45 45z" fill="#60312c"/></g></svg>