<svg id="Layer_5" enable-background="new 0 0 64 64" height="512" viewBox="0 0 64 64" width="512" xmlns="http://www.w3.org/2000/svg" xmlns:xlink="http://www.w3.org/1999/xlink"><linearGradient id="SVGID_1_" gradientUnits="userSpaceOnUse" x1="32" x2="32" y1="62.024" y2="1.999"><stop offset="0" stop-color="#9f2fff"/><stop offset="1" stop-color="#0bb1d3"/></linearGradient><path d="m51.429 27.905-9.818 1.786c.243-.515.389-1.085.389-1.691 0-1.507-.847-2.805-2.08-3.487l9.647-2.631 5.201-6.241-1.536-1.281-4.799 5.759-7.162 1.953c.477-.89.729-1.915.729-3.072 0-.679-.078-1.401-.217-2.136 1.736-.378 6.217-1.665 6.217-4.864 0-5.177-2.02-9.275-2.105-9.447l-1.79.894c.019.037 1.895 3.866 1.895 8.553 0 1.496-2.964 2.555-4.746 2.932-.241-.671-.541-1.33-.904-1.964.684-.862 1.65-2.355 1.65-3.968 0-4.667-6.411-6.857-6.684-6.948-.404-.137-.846-.001-1.106.335-.26.335-.28.798-.051 1.155.015.023 1.261 2 1.693 5.25-1.123-.494-2.398-.792-3.852-.792-1.453 0-2.728.298-3.85.792.434-3.231 1.677-5.228 1.691-5.25.229-.357.209-.82-.051-1.155-.261-.336-.703-.472-1.106-.335-.273.091-6.684 2.281-6.684 6.948 0 1.613.966 3.106 1.65 3.968-.363.634-.663 1.294-.904 1.964-1.782-.377-4.746-1.436-4.746-2.932 0-4.688 1.876-8.516 1.895-8.554l-1.79-.894c-.085.173-2.105 4.271-2.105 9.448 0 3.199 4.481 4.486 6.217 4.864-.139.735-.217 1.457-.217 2.136 0 1.157.252 2.182.729 3.071l-7.162-1.953-4.799-5.759-1.536 1.281 5.201 6.241 9.647 2.631c-1.233.683-2.08 1.981-2.08 3.488 0 .606.146 1.176.388 1.691l-9.818-1.786-6.229 8.306-1.789.895.895 1.789 2.211-1.105 5.771-7.694 8.989 1.634c-.258.469-.418 1-.418 1.574 0 1.055.491 2.001 1.283 2.61-.065.134-.131.269-.193.402l-10.913 4.96-3.981 12.938-2.512.838.633 1.896 3.488-1.162 4.019-13.062 8.066-3.667c-1.248 3.118-1.89 5.785-1.89 7.943 0 11.629 11.62 14.933 11.737 14.965l.219.06.223-.041c.118-.022 11.821-2.296 11.821-14.984 0-2.158-.642-4.825-1.889-7.942l8.066 3.667 4.019 13.062 3.488 1.162.633-1.896-2.512-.838-3.981-12.938-10.913-4.96c-.063-.133-.129-.268-.193-.402.791-.611 1.282-1.556 1.282-2.611 0-.573-.16-1.105-.418-1.575l8.989-1.634 5.771 7.694 2.211 1.105.895-1.789-1.789-.895zm-12.733 4.095c.719 0 1.304.585 1.304 1.304 0 .582-.372 1.084-.926 1.248-3.146.933-5.658 1.448-7.074 1.448s-3.928-.515-7.074-1.448c-.554-.164-.926-.666-.926-1.248 0-.719.585-1.304 1.304-1.304h.696 12zm3.304 15c0 .967-.096 1.843-.234 2.675-2.012 1.443-5.924 3.325-9.766 3.325-3.415 0-7.371-1.619-9.718-3.292-.17-.843-.282-1.735-.282-2.708 0-.27.021-.56.045-.853 2.272 1.518 5.727 2.853 9.955 2.853s7.682-1.335 9.955-2.853c.024.293.045.583.045.853zm-10 0c-4.312 0-7.741-1.574-9.59-3.059.204-.878.484-1.82.841-2.825 2.176 1.452 5.208 2.884 8.749 2.884s6.573-1.432 8.749-2.884c.357 1.005.637 1.948.841 2.826-1.849 1.484-5.279 3.058-9.59 3.058zm0-5c-3.259 0-6.068-1.433-8.013-2.801.335-.803.724-1.645 1.14-2.506 2.252.641 5.033 1.307 6.873 1.307s4.621-.666 6.873-1.307c.417.861.805 1.703 1.14 2.506-1.945 1.368-4.754 2.801-8.013 2.801zm5.031-36.923c1.424.861 2.969 2.194 2.969 3.923 0 .754-.422 1.583-.867 2.241-.357-.414-.748-.799-1.175-1.152-.099-2.025-.491-3.739-.927-5.012zm2.969 13.923c0 4.133-4.351 5-8 5s-8-.867-8-5c0-3.737 2.482-9 8-9s8 5.263 8 9zm-16-10c0-1.669 1.491-3.027 2.973-3.934-.437 1.274-.831 2.992-.931 5.023-.427.353-.818.738-1.175 1.152-.445-.658-.867-1.487-.867-2.241zm2 17h12c1.103 0 2 .897 2 2s-.897 2-2 2h-12c-1.103 0-2-.897-2-2s.897-2 2-2zm6.046 33.969c-1.131-.368-6.364-2.322-8.794-7.338 2.496 1.303 5.714 2.369 8.748 2.369 3.043 0 6.4-1.105 8.983-2.492-2.278 5.615-7.729 7.182-8.937 7.461z" fill="url(#SVGID_1_)"/></svg>